<?xml version="1.0" encoding="UTF-8"?>
<svg id="Layer_1" xmlns="http://www.w3.org/2000/svg" version="1.1" viewBox="0 0 40 40">
  <!-- Generator: Adobe Illustrator 29.2.1, SVG Export Plug-In . SVG Version: 2.1.0 Build 116)  -->
  <defs>
    <style>
      .st0 {
        fill: #fff;
      }
    </style>
  </defs>
  <g id="Layer_1-2">
    <g>
      <path class="st0" d="M7.5,10.5h6.1c1.4,0,2.8.4,4.1,1,0,0,0,0,.1,0,.1,0,.2,0,.3-.2,0-.1,0-.3-.1-.4-1.3-.7-2.8-1.1-4.4-1.1h-6.1c-.2,0-.3.1-.3.3s.1.3.3.3h0Z"/>
      <path class="st0" d="M7.5,13.3h6.1c1.4,0,2.8.4,4.1,1,0,0,0,0,.1,0,.1,0,.2,0,.3-.2,0-.1,0-.3-.1-.4-1.3-.7-2.8-1.1-4.4-1.1h-6.1c-.2,0-.3.1-.3.3s.1.3.3.3h0Z"/>
      <path class="st0" d="M7.5,16.2h6.1c1.4,0,2.8.4,4.1,1,0,0,0,0,.1,0,.1,0,.2,0,.3-.2,0-.1,0-.3-.1-.4-1.3-.7-2.8-1.1-4.4-1.1h-6.1c-.2,0-.3.1-.3.3s.1.3.3.3h0Z"/>
      <path class="st0" d="M7.5,19h6.1c1.4,0,2.8.4,4.1,1,0,0,0,0,.1,0,.1,0,.2,0,.3-.2,0-.1,0-.3-.1-.4-1.3-.7-2.8-1.1-4.4-1.1h-6.1c-.2,0-.3.1-.3.3s.1.3.3.3h0Z"/>
      <path class="st0" d="M7.5,21.8h6.1c1.4,0,2.8.4,4.1,1,0,0,0,0,.1,0,.1,0,.2,0,.3-.2,0-.1,0-.3-.1-.4-1.3-.7-2.8-1.1-4.4-1.1h-6.1c-.2,0-.3.1-.3.3s.1.3.3.3h0Z"/>
      <path class="st0" d="M7.5,24.7h6.1c1.4,0,2.8.4,4.1,1,0,0,0,0,.1,0,.1,0,.2,0,.3-.2,0-.1,0-.3-.1-.4-1.3-.7-2.8-1.1-4.4-1.1h-6.1c-.2,0-.3.1-.3.3s.1.3.3.3h0Z"/>
      <path class="st0" d="M36.8,8.5h-1.3v-2c0-.3-.3-.6-.6-.6h-8.6c-2,0-4,.7-5.6,1.8l-.8.6-.8-.6c-1.6-1.2-3.6-1.8-5.6-1.8H5c-.3,0-.6.3-.6.6v2h-1.3c-.3,0-.6.3-.6.6v24.3c0,.3.3.6.6.6h33.6c.3,0,.6-.3.6-.6V9.1c0-.3-.3-.6-.6-.6ZM3.8,31.2h15.7v.5H3.8v-.5ZM20.6,31.2h15.7v.5h-15.7v-.5ZM36.2,9.7v20.4h-14.5c1.4-.9,3-1.4,4.6-1.4h8.6c.3,0,.6-.3.6-.6V9.7h.7,0ZM21.5,8.7c1.4-1,3.2-1.6,4.9-1.6h8v20.3h-8c-2,0-4,.7-5.6,1.8l-.2.2V9.4l.9-.7h0ZM5.6,7.1h8c1.8,0,3.5.6,4.9,1.6l.9.7v20.1l-.2-.2c-1.6-1.2-3.6-1.8-5.6-1.8h-8V7.1ZM3.8,9.7h.7v18.3c0,.3.3.6.6.6h8.6c1.6,0,3.3.5,4.6,1.4H3.8V9.7ZM3.8,32.3h15.7v.5H3.8v-.5ZM20.6,32.9v-.5h15.7v.5h-15.7Z"/>
      <path class="st0" d="M22.2,11.6s0,0,.1,0c1.2-.7,2.7-1,4.1-1h6.1c.2,0,.3-.1.3-.3s-.1-.3-.3-.3h-6.1c-1.5,0-3,.4-4.4,1.1-.1,0-.2.3-.1.4,0,0,.2.2.3.2h0Z"/>
      <path class="st0" d="M22.2,14.4s0,0,.1,0c1.2-.7,2.7-1,4.1-1h6.1c.2,0,.3-.1.3-.3s-.1-.3-.3-.3h-6.1c-1.5,0-3,.4-4.4,1.1-.1,0-.2.3-.1.4,0,0,.2.2.3.2h0Z"/>
      <path class="st0" d="M32.5,15.6h-6.1c-1.5,0-3,.4-4.4,1.1-.1,0-.2.3-.1.4,0,0,.2.2.3.2s0,0,.1,0c1.2-.7,2.7-1,4.1-1h6.1c.2,0,.3-.1.3-.3s-.1-.3-.3-.3h0Z"/>
      <path class="st0" d="M22.2,20.1s0,0,.1,0c1.2-.7,2.7-1,4.1-1h6.1c.2,0,.3-.1.3-.3s-.1-.3-.3-.3h-6.1c-1.5,0-3,.4-4.4,1.1-.1,0-.2.3-.1.4,0,0,.2.2.3.2h0Z"/>
      <path class="st0" d="M22.2,22.9s0,0,.1,0c1.2-.7,2.7-1,4.1-1h6.1c.2,0,.3-.1.3-.3s-.1-.3-.3-.3h-6.1c-1.5,0-3,.4-4.4,1.1-.1,0-.2.3-.1.4,0,0,.2.2.3.2h0Z"/>
      <path class="st0" d="M32.5,24.1h-6.1c-1.5,0-3,.4-4.4,1.1-.1,0-.2.3-.1.4,0,0,.2.2.3.2s0,0,.1,0c1.2-.7,2.7-1,4.1-1h6.1c.2,0,.3-.1.3-.3s-.1-.3-.3-.3h0Z"/>
    </g>
  </g>
</svg>