<?xml version="1.0" encoding="UTF-8"?>
<svg id="Layer_1" xmlns="http://www.w3.org/2000/svg" xmlns:xlink="http://www.w3.org/1999/xlink" version="1.1" viewBox="0 0 1170 780">
  <!-- Generator: Adobe Illustrator 29.2.1, SVG Export Plug-In . SVG Version: 2.1.0 Build 116)  -->
  <defs>
    <style>
      .st0 {
        fill: none;
      }

      .st1 {
        fill: #fff;
      }

      .st2 {
        fill: #80dbff;
      }

      .st3 {
        opacity: 0;
      }

      .st4 {
        fill: url(#New_Pattern);
      }

      .st5 {
        clip-path: url(#clippath);
      }
    </style>
    <clipPath id="clippath">
      <rect width="100" height="100"/>
    </clipPath>
    <pattern id="New_Pattern" data-name="New Pattern" x="0" y="0" width="100" height="100" patternTransform="translate(0 780)" patternUnits="userSpaceOnUse" viewBox="0 0 100 100">
      <g>
        <rect class="st0" width="100" height="100"/>
        <g>
          <rect width="100" height="100"/>
          <g class="st5">
            <path class="st2" d="M150-102.1l-15.3,15.3h-21.6v21.6l-15.3,15.3,15.3,15.3V-13.1h21.6l15.3,15.3,15.3-15.3h21.6v-21.6l15.3-15.3-15.3-15.3v-21.6h-21.6l-15.3-15.3ZM116.2-83.8h19.8l14-14,14,14h19.8v19.8l14,14-14,14v19.8h-19.8l-14,14-14-14h-19.8v-19.8l-14-14,14-14v-19.8Z"/>
            <g>
              <path d="M50-102.1l-15.3,15.3H13.1v21.6l-15.3,15.3,15.3,15.3V-13.1h21.6l15.3,15.3,15.3-15.3h21.6v-21.6l15.3-15.3-15.3-15.3v-21.6h-21.6l-15.3-15.3ZM16.2-83.8h19.8l14-14,14,14h19.8v19.8l14,14-14,14v19.8h-19.8l-14,14-14-14h-19.8v-19.8l-14-14,14-14s0-19.8,0-19.8Z"/>
              <path d="M100-12.7L87.2,0l12.8,12.8L112.8,0l-12.8-12.8ZM91.5,0l8.5-8.5L108.5,0l-8.5,8.5L91.5,0Z"/>
              <g>
                <g>
                  <rect x="10.3" y="-1.5" width="17.2" height="3"/>
                  <path d="M32-5.9C28.7-5.9,26.1-3.3,26.1,0s2.7,5.9,5.9,5.9S37.9,3.3,37.9,0s-2.7-5.9-5.9-5.9ZM32,2.9C30.4,2.9,29.1,1.6,29.1,0s1.3-2.9,2.9-2.9S34.9-1.6,34.9,0s-1.3,2.9-2.9,2.9Z"/>
                </g>
                <g>
                  <rect x="72.4" y="-1.5" width="17.2" height="3"/>
                  <path d="M68-5.9C64.7-5.9,62.1-3.3,62.1,0s2.7,5.9,5.9,5.9S73.9,3.3,73.9,0s-2.7-5.9-5.9-5.9ZM68,2.9c-1.6,0-2.9-1.3-2.9-2.9s1.3-2.9,2.9-2.9S70.9-1.6,70.9,0s-1.3,2.9-2.9,2.9Z"/>
                </g>
              </g>
              <circle cx="100" cy="0" r="2.8"/>
            </g>
            <g>
              <path d="M-50-102.1l-15.3,15.3h-21.6v21.6l-15.3,15.3,15.3,15.3V-13.1h21.6l15.3,15.3,15.3-15.3H-13.1v-21.6l15.3-15.3-15.3-15.3v-21.6h-21.6l-15.3-15.3ZM-83.8-83.8h19.8l14-14,14,14h19.8v19.8l14,14-14,14v19.8h-19.8l-14,14-14-14h-19.8v-19.8l-14-14,14-14v-19.8Z"/>
              <path d="M0-12.7L-12.7,0,0,12.8,12.8,0,0-12.7ZM-8.5,0L0-8.5,8.5,0,0,8.5-8.5,0Z"/>
              <circle cx="0" cy="0" r="2.8"/>
            </g>
            <g>
              <path d="M150-2.1l-15.3,15.3h-21.6v21.6l-15.3,15.3,15.3,15.3v21.6h21.6l15.3,15.3,15.3-15.3h21.6v-21.6l15.3-15.3-15.3-15.3V13.1h-21.6l-15.3-15.3ZM116.2,16.2h19.8l14-14,14,14h19.8v19.8l14,14-14,14v19.8h-19.8l-14,14-14-14h-19.8v-19.8l-14-14,14-14v-19.8h0Z"/>
              <g>
                <g>
                  <rect x="98.5" y="72.4" width="3" height="17.2"/>
                  <path d="M100,62.1c-3.3,0-5.9,2.7-5.9,5.9s2.7,5.9,5.9,5.9,5.9-2.7,5.9-5.9-2.7-5.9-5.9-5.9ZM100,70.9c-1.6,0-2.9-1.3-2.9-2.9s1.3-2.9,2.9-2.9,2.9,1.3,2.9,2.9-1.3,2.9-2.9,2.9Z"/>
                </g>
                <g>
                  <rect x="98.5" y="10.3" width="3" height="17.2"/>
                  <path d="M100,26.1c-3.3,0-5.9,2.7-5.9,5.9s2.7,5.9,5.9,5.9,5.9-2.7,5.9-5.9c0-3.3-2.7-5.9-5.9-5.9ZM100,34.9c-1.6,0-2.9-1.3-2.9-2.9s1.3-2.9,2.9-2.9,2.9,1.3,2.9,2.9c0,1.6-1.3,2.9-2.9,2.9Z"/>
                </g>
              </g>
            </g>
            <g>
              <path class="st1" d="M77.8,61.5v16.3h-16.3l-11.5,11.5-11.5-11.5h-16.3v-16.3l-11.5-11.5,11.5-11.5v-16.3h16.3l11.5-11.5,11.5,11.5h16.3v16.3l11.5,11.5-11.5,11.5ZM70.8,41.4v-12.2h-12.2l-8.6-8.6-8.6,8.6h-12.2v12.2l-8.6,8.6,8.6,8.6v12.2h12.2l8.6,8.6,8.6-8.6h12.2v-12.2l8.6-8.6-8.6-8.6Z"/>
              <path class="st1" d="M50-2.1l-15.3,15.3H13.1v21.6l-15.3,15.3,15.3,15.3v21.6h21.6l15.3,15.3,15.3-15.3h21.6v-21.6l15.3-15.3-15.3-15.3V13.1h-21.6l-15.3-15.3ZM16.2,16.2h19.8l14-14,14,14h19.8v19.8l14,14-14,14v19.8h-19.8l-14,14-14-14h-19.8v-19.8l-14-14,14-14s0-19.8,0-19.8Z"/>
              <path class="st1" d="M50,24.6l-7.4,7.5h-10.5v10.5l-7.4,7.4,7.4,7.4v10.5h10.5l7.4,7.4,7.4-7.4h10.5v-10.5l7.4-7.4-7.4-7.4v-10.5h-10.5l-7.4-7.5ZM35,35h8.8l6.2-6.2,6.2,6.2h8.8v8.8l6.2,6.2-6.2,6.2v8.8h-8.8l-6.2,6.2-6.2-6.2h-8.8v-8.8l-6.2-6.2,6.2-6.2v-8.8Z"/>
              <path class="st1" d="M100,87.2l-12.8,12.8,12.8,12.8,12.8-12.8-12.8-12.8ZM91.5,100l8.5-8.5,8.5,8.5-8.5,8.5-8.5-8.5Z"/>
              <g>
                <g>
                  <g>
                    <rect class="st1" x="98.5" y="72.4" width="3" height="17.2"/>
                    <path class="st1" d="M100,62.1c-3.3,0-5.9,2.7-5.9,5.9s2.7,5.9,5.9,5.9,5.9-2.7,5.9-5.9-2.7-5.9-5.9-5.9ZM100,70.9c-1.6,0-2.9-1.3-2.9-2.9s1.3-2.9,2.9-2.9,2.9,1.3,2.9,2.9-1.3,2.9-2.9,2.9Z"/>
                  </g>
                  <g>
                    <rect class="st1" x="98.5" y="10.3" width="3" height="17.2"/>
                    <path class="st1" d="M100,26.1c-3.3,0-5.9,2.7-5.9,5.9s2.7,5.9,5.9,5.9,5.9-2.7,5.9-5.9c0-3.3-2.7-5.9-5.9-5.9ZM100,34.9c-1.6,0-2.9-1.3-2.9-2.9s1.3-2.9,2.9-2.9,2.9,1.3,2.9,2.9c0,1.6-1.3,2.9-2.9,2.9Z"/>
                  </g>
                </g>
                <g>
                  <g>
                    <rect class="st1" x="-1.5" y="72.4" width="3" height="17.2"/>
                    <path class="st1" d="M0,62.1c-3.3,0-5.9,2.7-5.9,5.9S-3.3,73.9,0,73.9s5.9-2.7,5.9-5.9S3.3,62.1,0,62.1ZM0,70.9c-1.6,0-2.9-1.3-2.9-2.9S-1.6,65.1,0,65.1s2.9,1.3,2.9,2.9S1.6,70.9,0,70.9Z"/>
                  </g>
                  <g>
                    <rect class="st1" x="-1.5" y="10.3" width="3" height="17.2"/>
                    <path class="st1" d="M0,26.1c-3.3,0-5.9,2.7-5.9,5.9S-3.3,37.9,0,37.9s5.9-2.7,5.9-5.9S3.3,26.1,0,26.1ZM0,34.9c-1.6,0-2.9-1.3-2.9-2.9S-1.6,29.1,0,29.1s2.9,1.3,2.9,2.9S1.6,34.9,0,34.9Z"/>
                  </g>
                </g>
              </g>
              <g>
                <g>
                  <g>
                    <rect class="st1" x="10.3" y="98.5" width="17.2" height="3"/>
                    <path class="st1" d="M32,94.1c-3.3,0-5.9,2.7-5.9,5.9s2.7,5.9,5.9,5.9,5.9-2.7,5.9-5.9-2.7-5.9-5.9-5.9ZM32,102.9c-1.6,0-2.9-1.3-2.9-2.9s1.3-2.9,2.9-2.9,2.9,1.3,2.9,2.9-1.3,2.9-2.9,2.9Z"/>
                  </g>
                  <g>
                    <rect class="st1" x="72.4" y="98.5" width="17.2" height="3"/>
                    <path class="st1" d="M68,94.1c-3.3,0-5.9,2.7-5.9,5.9s2.7,5.9,5.9,5.9,5.9-2.7,5.9-5.9-2.7-5.9-5.9-5.9ZM68,102.9c-1.6,0-2.9-1.3-2.9-2.9s1.3-2.9,2.9-2.9,2.9,1.3,2.9,2.9-1.3,2.9-2.9,2.9Z"/>
                  </g>
                </g>
                <g>
                  <g>
                    <rect class="st1" x="10.3" y="-1.5" width="17.2" height="3"/>
                    <path class="st1" d="M32-5.9C28.7-5.9,26.1-3.3,26.1,0s2.7,5.9,5.9,5.9S37.9,3.3,37.9,0s-2.7-5.9-5.9-5.9ZM32,2.9C30.4,2.9,29.1,1.6,29.1,0s1.3-2.9,2.9-2.9S34.9-1.6,34.9,0s-1.3,2.9-2.9,2.9Z"/>
                  </g>
                  <g>
                    <rect class="st1" x="72.4" y="-1.5" width="17.2" height="3"/>
                    <path class="st1" d="M68-5.9C64.7-5.9,62.1-3.3,62.1,0s2.7,5.9,5.9,5.9S73.9,3.3,73.9,0s-2.7-5.9-5.9-5.9ZM68,2.9c-1.6,0-2.9-1.3-2.9-2.9s1.3-2.9,2.9-2.9S70.9-1.6,70.9,0s-1.3,2.9-2.9,2.9Z"/>
                  </g>
                </g>
              </g>
              <circle class="st1" cx="100" cy="100" r="2.8"/>
            </g>
            <g>
              <path d="M-50-2.1l-15.3,15.3h-21.6v21.6l-15.3,15.3,15.3,15.3v21.6h21.6l15.3,15.3,15.3-15.3H-13.1v-21.6l15.3-15.3-15.3-15.3V13.1h-21.6l-15.3-15.3ZM-83.8,16.2h19.8l14-14,14,14h19.8v19.8l14,14-14,14v19.8h-19.8l-14,14-14-14h-19.8v-19.8l-14-14,14-14v-19.8h0Z"/>
              <path d="M0,87.2l-12.8,12.8L0,112.8l12.8-12.8L0,87.2ZM-8.5,100L0,91.5l8.5,8.5L0,108.5l-8.5-8.5Z"/>
              <g>
                <g>
                  <rect x="-1.5" y="72.4" width="3" height="17.2"/>
                  <path d="M0,62.1c-3.3,0-5.9,2.7-5.9,5.9S-3.3,73.9,0,73.9s5.9-2.7,5.9-5.9S3.3,62.1,0,62.1ZM0,70.9c-1.6,0-2.9-1.3-2.9-2.9S-1.6,65.1,0,65.1s2.9,1.3,2.9,2.9S1.6,70.9,0,70.9Z"/>
                </g>
                <g>
                  <rect x="-1.5" y="10.3" width="3" height="17.2"/>
                  <path d="M0,26.1c-3.3,0-5.9,2.7-5.9,5.9S-3.3,37.9,0,37.9s5.9-2.7,5.9-5.9S3.3,26.1,0,26.1ZM0,34.9c-1.6,0-2.9-1.3-2.9-2.9S-1.6,29.1,0,29.1s2.9,1.3,2.9,2.9S1.6,34.9,0,34.9Z"/>
                </g>
              </g>
              <circle cx="0" cy="100" r="2.8"/>
            </g>
            <path d="M150,97.9l-15.3,15.3h-21.6v21.6l-15.3,15.3,15.3,15.3v21.6h21.6l15.3,15.3,15.3-15.3h21.6v-21.6l15.3-15.3-15.3-15.3v-21.6h-21.6l-15.3-15.3ZM116.2,116.2h19.8l14-14,14,14h19.8v19.8l14,14-14,14v19.8h-19.8l-14,14-14-14h-19.8v-19.8l-14-14,14-14v-19.8h0Z"/>
            <g>
              <path d="M50,97.9l-15.3,15.3H13.1v21.6l-15.3,15.3,15.3,15.3v21.6h21.6l15.3,15.3,15.3-15.3h21.6v-21.6l15.3-15.3-15.3-15.3v-21.6h-21.6l-15.3-15.3ZM16.2,116.2h19.8l14-14,14,14h19.8v19.8l14,14-14,14v19.8h-19.8l-14,14-14-14h-19.8v-19.8l-14-14,14-14s0-19.8,0-19.8Z"/>
              <g>
                <g>
                  <rect x="10.3" y="98.5" width="17.2" height="3"/>
                  <path d="M32,94.1c-3.3,0-5.9,2.7-5.9,5.9s2.7,5.9,5.9,5.9,5.9-2.7,5.9-5.9-2.7-5.9-5.9-5.9ZM32,102.9c-1.6,0-2.9-1.3-2.9-2.9s1.3-2.9,2.9-2.9,2.9,1.3,2.9,2.9-1.3,2.9-2.9,2.9Z"/>
                </g>
                <g>
                  <rect x="72.4" y="98.5" width="17.2" height="3"/>
                  <path d="M68,94.1c-3.3,0-5.9,2.7-5.9,5.9s2.7,5.9,5.9,5.9,5.9-2.7,5.9-5.9-2.7-5.9-5.9-5.9ZM68,102.9c-1.6,0-2.9-1.3-2.9-2.9s1.3-2.9,2.9-2.9,2.9,1.3,2.9,2.9-1.3,2.9-2.9,2.9Z"/>
                </g>
              </g>
            </g>
            <path d="M-50,97.9l-15.3,15.3h-21.6v21.6l-15.3,15.3,15.3,15.3v21.6h21.6l15.3,15.3,15.3-15.3H-13.1v-21.6l15.3-15.3-15.3-15.3v-21.6h-21.6l-15.3-15.3ZM-83.8,116.2h19.8l14-14,14,14h19.8v19.8l14,14-14,14v19.8h-19.8l-14,14-14-14h-19.8v-19.8l-14-14,14-14v-19.8h0Z"/>
          </g>
        </g>
      </g>
    </pattern>
  </defs>
  <g id="Background" class="st3">
    <rect width="1170" height="780"/>
  </g>
  <g id="Pattern" class="st3">
    <rect class="st4" width="1170" height="780"/>
  </g>
</svg>