<?xml version="1.0" encoding="UTF-8"?>
<svg id="Layer_1" xmlns="http://www.w3.org/2000/svg" xmlns:xlink="http://www.w3.org/1999/xlink" version="1.1" viewBox="0 0 181 56">
  <!-- Generator: Adobe Illustrator 29.2.1, SVG Export Plug-In . SVG Version: 2.1.0 Build 116)  -->
  <defs>
    <style>
      .st0 {
        fill: none;
      }

      .st1 {
        fill: #031c1a;
      }

      .st2 {
        clip-path: url(#clippath-1);
      }

      .st3 {
        fill: #fff;
      }

      .st4 {
        clip-path: url(#clippath);
      }
    </style>
    <clipPath id="clippath">
      <rect class="st0" x="1.9" width="176.8" height="54.7"/>
    </clipPath>
    <clipPath id="clippath-1">
      <rect class="st0" width="181" height="56"/>
    </clipPath>
  </defs>
  <g class="st4">
    <g>
      <path class="st3" d="M1.9,0h176.8v54.7H1.9V0Z"/>
      <path class="st3" d="M1.9,0h176.8v54.7H1.9V0Z"/>
    </g>
  </g>
  <g class="st2">
    <path class="st1" d="M0,0h181.1v56H0V0Z"/>
  </g>
  <path class="st3" d="M7.3,36.7l2.4-.6V10.5l-2.4-.6v-.6h10.8c4.1,0,7.1.7,9,2,1.9,1.3,2.9,3,2.9,5.1s-.4,2.6-1.3,3.5c-.8.9-1.9,1.5-3.1,2-1.4.5-2.8.7-4.4.8v.2c1.9,0,3.6.4,5.1.9,1.5.5,2.7,1.2,3.7,2.3,1,1,1.5,2.3,1.5,3.9,0,2.4-1,4.2-2.9,5.6-1.9,1.3-5.1,2-9.5,2H7.3v-.6ZM18.1,22.1c.9,0,1.7-.2,2.5-.7.8-.5,1.4-1.2,1.8-2.1.5-.9.7-1.9.7-3s-.2-2.2-.7-3.1c-.5-.9-1.1-1.6-1.8-2.1-.8-.5-1.6-.8-2.5-.8h-1.8v11.8h1.8ZM18.9,36.3c1.7,0,3-.6,4-1.8,1-1.2,1.6-2.8,1.6-4.9s-.5-3.7-1.6-4.9c-1-1.2-2.4-1.8-4-1.8h-2.6v13.3h2.6Z"/>
  <path class="st3" d="M42,37.9c-2.4,0-4.2-.5-5.5-1.5-1.3-1-1.9-2.3-1.9-3.9s.2-2.1.7-3.1c.2-.5.4-.9.7-1.3,1.1-.3,2.3-.5,3.6-.7,2.9-.5,5.4-.8,7.7-.9v-1.2c0-3-.4-5-1.1-6.1-.7-1.1-1.8-1.7-3.3-1.7s-1,0-1.4.2l-.6.2v6h-.5c-.4.2-.8.2-1.1.2-.9,0-1.7-.3-2.2-.8-.5-.6-.8-1.3-.8-2.2s.6-2.3,1.9-3.1c1.3-.9,3.1-1.3,5.6-1.3s3.9.4,5.4,1.1c1.5.7,2.7,1.8,3.4,3.1.8,1.3,1.2,2.8,1.2,4.5v10.8l2.4.6v.6h-3.6c-1.6,0-2.8-.5-3.7-1.5-.4-.4-.7-.9-.9-1.5-.4.7-.8,1.3-1.3,1.8-1.2,1.2-2.7,1.8-4.5,1.8ZM43.6,36.5c1,0,1.9-.5,2.7-1.6.3-.4.6-.9.9-1.6v-5.8c-1.2,0-2.4,0-3.5.2-.8,0-1.4.2-1.7.2-.1.3-.3.7-.4,1.2-.3,1-.4,2-.4,3,0,1.5.2,2.6.7,3.3.5.7,1,1.1,1.7,1.1Z"/>
  <path class="st3" d="M66.7,37.9c-1.6,0-3-.4-4.2-1.2-1.2-.8-2.2-2-2.9-3.6-.7-1.6-1.1-3.5-1.1-5.8,0-3.4.8-6.1,2.4-7.9,1.6-1.8,3.8-2.8,6.5-2.8s2.4.3,3.4.8c.4.2.8.4,1.2.8v-7.8l-2.4-.6v-.6h5.2c2.4,0,3.6,1.2,3.6,3.6v23.3l2.4.6v.6h-3.6c-1.6,0-2.9-.5-3.7-1.5-.4-.4-.7-.9-.9-1.5-.3.7-.8,1.3-1.3,1.8-1.2,1.2-2.7,1.8-4.5,1.8ZM68.3,36.5c1,0,1.9-.5,2.7-1.6.3-.4.6-.9.9-1.6v-13.8c-.3-.3-.6-.6-.9-.8-.7-.5-1.4-.8-2.1-.8-1.2,0-2.1.7-2.7,2-.6,1.3-.9,3.8-.9,7.4s.3,5.8.9,7.2c.6,1.3,1.3,2,2.2,2Z"/>
  <path class="st3" d="M83.3,36.7l2.4-.6v-17.6l-2.4-.6v-.6h3.6c1.6,0,2.8.5,3.7,1.5.4.4.7.9.9,1.5.4-.6.9-1.1,1.5-1.6,1.3-1.1,2.8-1.6,4.5-1.6s2.5.3,3.2,1c.7.7,1.1,1.6,1.1,2.8s-.3,1.7-.8,2.2c-.5.5-1.3.8-2.2.8s-.8,0-1.1,0h-.5v-5.7c-1.4,0-2.6.5-3.8,1.6-.5.5-1,1.1-1.3,1.6v14.8l2.4.6v.6h-11.2v-.6Z"/>
  <path class="st3" d="M111.4,37.9c-2.4,0-4.2-.5-5.5-1.5-1.3-1-1.9-2.3-1.9-3.9s.2-2.1.7-3.1c.2-.5.4-.9.7-1.3,1.1-.3,2.3-.5,3.6-.7,2.9-.5,5.4-.8,7.7-.9v-1.2c0-3-.4-5-1.1-6.1-.7-1.1-1.8-1.7-3.3-1.7s-1,0-1.4.2l-.6.2v6h-.5c-.4.2-.8.2-1.1.2-.9,0-1.7-.3-2.2-.8-.5-.6-.8-1.3-.8-2.2s.6-2.3,1.9-3.1c1.3-.9,3.1-1.3,5.6-1.3s3.9.4,5.4,1.1c1.5.7,2.7,1.8,3.4,3.1.8,1.3,1.2,2.8,1.2,4.5v10.8l2.4.6v.6h-3.6c-1.6,0-2.8-.5-3.7-1.5-.4-.4-.7-.9-.9-1.5-.4.7-.8,1.3-1.3,1.8-1.2,1.2-2.7,1.8-4.5,1.8ZM113,36.5c1,0,1.9-.5,2.7-1.6.3-.4.6-.9.9-1.6v-5.8c-1.2,0-2.4,0-3.5.2-.8,0-1.4.2-1.7.2-.1.3-.3.7-.4,1.2-.3,1-.4,2-.4,3,0,1.5.2,2.6.7,3.3.5.7,1,1.1,1.7,1.1Z"/>
  <path class="st3" d="M127.8,36.7l2.4-.6v-17.6l-2.4-.6v-.6h3.6c1.6,0,2.8.5,3.7,1.5.4.4.7.9.9,1.5.4-.7.8-1.3,1.3-1.8,1.2-1.2,2.7-1.8,4.5-1.8s2.8.3,4,1c1.2.6,2.1,1.4,2.8,2.5.7,1,1,2.1,1,3.2v12.8l2.4.6v.6h-5.2c-2.4,0-3.6-1.2-3.6-3.6v-10.4c0-1.7-.3-3-.9-3.9-.6-.9-1.3-1.4-2.1-1.4s-1.9.5-2.7,1.6c-.3.4-.6,1-.9,1.6v14.8l2.4.6v.6h-11.2v-.6Z"/>
  <path class="st3" d="M165.4,37.9c-3.4,0-6.1-.9-8-2.8-1.9-1.9-2.9-4.5-2.9-7.8s.4-4.1,1.2-5.7c.8-1.6,2-2.8,3.5-3.7,1.5-.9,3.2-1.3,5.1-1.3s3.6.4,5.1,1.1c1.5.7,2.6,1.7,3.4,2.9.8,1.2,1.2,2.6,1.2,4s0,1.2-.2,1.7l-.2.7c-1.2.2-2.4.4-3.7.6-2.8.4-5.6.6-8.5.6,0,3.1.4,5.3,1.3,6.6.9,1.3,2,2,3.5,2s2-.3,2.9-.8c.9-.5,1.6-1.2,2.1-2,.5-.8.8-1.7.8-2.5h1c0,1.1-.3,2.1-1,3.1-.6,1-1.5,1.7-2.7,2.3-1.2.6-2.5.9-4,.9ZM161.3,27.3c1.7,0,3.1,0,4.2-.2.5,0,.9,0,1.4-.2,0-.1,0-.4.2-.9.1-.7.2-1.4.2-2.1,0-2.2-.3-3.8-.9-4.9-.6-1-1.3-1.5-2.1-1.5-2,0-3,3.3-3,9.8Z"/>
  <path class="st3" d="M38.7,48.8h.6v-6.6h-.6v-.3h2.7c1,0,1.8.2,2.2.5.5.3.7.7.7,1.3s-.1.7-.3.9c-.2.2-.5.4-.8.5-.3.1-.7.2-1.1.2h0c.5,0,.9.1,1.3.3.4.1.7.3.9.6.3.3.4.6.4,1,0,.6-.3,1.1-.8,1.4-.5.3-1.3.5-2.4.5h-2.9ZM41.4,45.1c.2,0,.4,0,.6-.2.2-.1.3-.3.5-.5.1-.2.2-.5.2-.8s0-.5-.2-.8c-.1-.2-.3-.4-.5-.5-.2-.1-.4-.2-.6-.2h-.5v3h.5ZM41.6,48.7c.4,0,.7-.1,1-.4.3-.3.4-.7.4-1.2s-.1-.9-.4-1.2c-.3-.3-.6-.5-1-.5h-.7v3.3h.7Z"/>
  <path class="st3" d="M49.5,48.8h.6v-6.6h-.6v-.3h5.4v1.8h-.3c-.1,0-.2-.2-.3-.4-.2-.4-.3-.8-.3-1.2h-2.2v3.2h1.2c0-.3.1-.5.3-.7,0-.1.1-.2.2-.3h.3v2.3h-.3c0,0-.1-.2-.2-.3-.1-.2-.2-.5-.3-.7h-1.2v3.1h2.4c0-.4.1-.8.3-1.2,0-.2.2-.3.3-.4h.3v1.8h-5.6Z"/>
  <path class="st3" d="M60.9,43.6v4.9l.8.3h0c0,.1-1.9.1-1.9.1h0c0-.1.8-.5.8-.5v-6.2l-.7-.2v-.2h1.1c.3,0,.6,0,.8.2.2.1.4.3.6.5l3.2,3.8v-4l-.8-.3v-.2h1.9v.2l-.8.3v6.7h-.3l-4.7-5.5Z"/>
  <path class="st3" d="M71.4,48.8h.6v-6.6h-.6v-.3h2.9v.2h-.6v6.6h2.2c0-.4.1-.8.3-1.2,0-.2.2-.3.3-.4h.3v1.8h-5.4Z"/>
  <path class="st3" d="M80.9,48.8l.8-.3,2.8-6.7h.3l2.9,6.8h.5v.3h-1.2c-.3,0-.6,0-.9-.2-.2-.2-.4-.4-.5-.6l-.5-1.2h-2.4l-.7,1.6.8.3h0c0,.1-1.9.1-1.9.1h0ZM82.7,46.6h2.2l-1.1-2.6-1.1,2.6Z"/>
  <path class="st3" d="M92.4,48.9h0c0-.1.6-.3.6-.3v-6.4h-.6v-.3h2.9v.2h-.6v3.3h2.2v-3.1h-.6v-.3h2.9v.2h-.6v6.6h.6v.3h-2.9c0-.1.6-.3.6-.3v-3.1h-2.2v3.1h.6v.3h-2.9Z"/>
  <path class="st3" d="M107.4,49.1c-1.1,0-1.9-.3-2.5-.9-.6-.6-.9-1.5-.9-2.7s.1-1.4.4-2c.3-.6.6-1,1.1-1.3.5-.3,1-.4,1.7-.4s.8.1,1.1.3c.2,0,.3.2.4.3.1-.2.2-.3.4-.4.1,0,.2-.1.2-.1h.3v1.9h-.4c0-.3-.2-.6-.4-.9-.2-.3-.4-.5-.6-.6-.2-.2-.5-.3-.8-.3-.5,0-.8.3-1.1.8-.3.5-.5,1.4-.5,2.6s.2,2.1.5,2.6c.3.5.8.8,1.4.8s.6,0,.9-.3c.3-.2.5-.4.7-.7.2-.3.3-.6.3-.9h.3c0,.4-.1.7-.3,1.1s-.5.6-.8.8c-.3.2-.7.3-1.2.3Z"/>
  <path class="st3" d="M114.6,48.8h.6v-6.6h-.6v-.3h5.4v1.8h-.3c-.1,0-.2-.2-.3-.4-.2-.4-.3-.8-.3-1.2h-2.2v3.2h1.2c0-.3.1-.5.3-.7,0-.1.1-.2.2-.3h.3v2.3h-.3c0,0-.1-.2-.2-.3-.1-.2-.2-.5-.3-.7h-1.2v3.1h2.4c0-.4.1-.8.3-1.2,0-.2.2-.3.3-.4h.3v1.8h-5.6Z"/>
  <path class="st3" d="M126,43.6v4.9l.8.3h0c0,.1-1.9.1-1.9.1h0c0-.1.8-.5.8-.5v-6.2l-.7-.2v-.2h1.1c.3,0,.6,0,.8.2.2.1.4.3.6.5l3.2,3.8v-4l-.8-.3v-.2h1.9v.2l-.8.3v6.7h-.3l-4.7-5.5Z"/>
  <path class="st3" d="M136.5,48.8h.6v-6.6h-.6v-.3h5.4v1.8h-.3c-.1,0-.2-.2-.3-.4-.2-.4-.3-.8-.3-1.2h-2.2v3.2h1.2c0-.3.1-.5.3-.7,0-.1.1-.2.2-.3h.3v2.3h-.3c0,0-.1-.2-.2-.3-.1-.2-.2-.5-.3-.7h-1.2v3.1h2.4c0-.4.1-.8.3-1.2,0-.2.2-.3.3-.4h.3v1.8h-5.6Z"/>
</svg>